<?xml version="1.0" encoding="utf-8"?>
<!-- Generator: Adobe Illustrator 19.2.1, SVG Export Plug-In . SVG Version: 6.00 Build 0)  -->
<svg version="1.1" id="Layer_1" xmlns="http://www.w3.org/2000/svg" xmlns:xlink="http://www.w3.org/1999/xlink" x="0px" y="0px"
	 viewBox="0 0 50 50" style="enable-background:new 0 0 50 50;" xml:space="preserve">
<style type="text/css">
	.st0{fill:#FFFFFF;}
</style>
<g>
	<path class="st0" d="M25,6.8C14.9,6.8,6.7,15,6.7,25.1c0,9.1,6.6,16.5,15.2,18V28.9h-4.4v-5.1H22V20c0-4.4,2.7-6.8,6.6-6.8
		c1.9,0,3.5,0.1,3.9,0.2V18h-2.7c-2.2,0-2.6,1-2.6,2.5v3.3h5l-0.7,5.1h-4.4v14.3c9.1-1.2,16-8.8,16-18.2C43.3,15,35.1,6.8,25,6.8
		L25,6.8z"/>
</g>
</svg>
