<?xml version="1.0" encoding="utf-8"?>
<!-- Generator: Adobe Illustrator 19.2.1, SVG Export Plug-In . SVG Version: 6.00 Build 0)  -->
<svg version="1.1" id="Layer_1" xmlns="http://www.w3.org/2000/svg" xmlns:xlink="http://www.w3.org/1999/xlink" x="0px" y="0px"
	 viewBox="0 0 50 50" style="enable-background:new 0 0 50 50;" xml:space="preserve">
<style type="text/css">
	.st0{fill:#FFFFFF;}
</style>
<g id="Page-1">
	<g id="Artboard-1-Copy-9" transform="translate(-1029.000000, -227.000000)">
		<path id="Instagram" class="st0" d="M1067,266.2H1041c-0.6,0-1.1-0.5-1.1-1.1v-16.4h4.3c-0.6,0.8-0.8,2.4-0.8,3.3
			c0,5.9,4.7,10.6,10.6,10.6c5.8,0,10.6-4.8,10.6-10.6c0-1-0.1-2.5-0.8-3.3h4.3v16.4C1068.1,265.8,1067.6,266.2,1067,266.2
			 M1054,245.3c3.7,0,6.7,3,6.7,6.7c0,3.7-3,6.7-6.7,6.7c-3.7,0-6.7-3-6.7-6.7C1047.4,248.3,1050.4,245.3,1054,245.3 M1062.7,238.8
			h3.3c0.6,0,1.1,0.5,1.1,1.1v3.3c0,0.6-0.5,1.1-1.1,1.1h-3.3c-0.6,0-1.1-0.5-1.1-1.1v-3.3C1061.6,239.3,1062.1,238.8,1062.7,238.8
			 M1067.2,234.5h-26.5c-2.3,0-4.1,1.9-4.1,4.2v26.7c0,2.3,1.8,4.2,4.1,4.2h26.5c2.3,0,4.1-1.9,4.1-4.2v-26.7
			C1071.4,236.3,1069.5,234.5,1067.2,234.5"/>
	</g>
</g>
</svg>
