<?xml version="1.0" encoding="UTF-8" standalone="no"?>
<svg width="189px" height="30px" viewBox="0 0 189 30" version="1.1" xmlns="http://www.w3.org/2000/svg" xmlns:xlink="http://www.w3.org/1999/xlink">
    <!-- Generator: Sketch 41.2 (35397) - http://www.bohemiancoding.com/sketch -->
    <title>Mask</title>
    <desc>Created with Sketch.</desc>
    <defs>
        <path d="M11.992,12.28 L16.44,12.28 C16.3759997,11.213328 16.1200022,10.2906706 15.672,9.512 C15.2239978,8.73332944 14.6426702,8.08266928 13.928,7.56 C13.2133298,7.03733072 12.4026712,6.64800128 11.496,6.392 C10.5893288,6.13599872 9.64533824,6.008 8.664,6.008 C7.31999328,6.008 6.12533856,6.23199776 5.08,6.68 C4.03466144,7.12800224 3.14933696,7.751996 2.424,8.552 C1.69866304,9.352004 1.1493352,10.3013278 0.776,11.4 C0.4026648,12.4986722 0.216,13.6879936 0.216,14.968 C0.216,16.2053395 0.41866464,17.3413282 0.824,18.376 C1.22933536,19.4106718 1.79466304,20.3013296 2.52,21.048 C3.24533696,21.7946704 4.12532816,22.3759979 5.16,22.792 C6.19467184,23.2080021 7.33066048,23.416 8.568,23.416 C10.7653443,23.416 12.567993,22.8400058 13.976,21.688 C15.384007,20.5359942 16.2373318,18.8613443 16.536,16.664 L12.152,16.664 C12.0026659,17.6880051 11.6346696,18.503997 11.048,19.112 C10.4613304,19.720003 9.62400544,20.024 8.536,20.024 C7.83199648,20.024 7.23466912,19.8640016 6.744,19.544 C6.25333088,19.2239984 5.86400144,18.8133358 5.576,18.312 C5.28799856,17.8106642 5.08000064,17.2506698 4.952,16.632 C4.82399936,16.0133302 4.76,15.4053363 4.76,14.808 C4.76,14.1893302 4.82399936,13.5653365 4.952,12.936 C5.08000064,12.3066635 5.29866512,11.7306693 5.608,11.208 C5.91733488,10.6853307 6.31733088,10.2586683 6.808,9.928 C7.29866912,9.59733168 7.90666304,9.432 8.632,9.432 C10.573343,9.432 11.6933318,10.3813238 11.992,12.28 Z M22.128,14.744 C22.128,14.0826634 22.1919994,13.4320032 22.32,12.792 C22.4480006,12.1519968 22.6666651,11.5866691 22.976,11.096 C23.2853349,10.6053309 23.6959974,10.2053349 24.208,9.896 C24.7200026,9.58666512 25.3599962,9.432 26.128,9.432 C26.8960038,9.432 27.5413307,9.58666512 28.064,9.896 C28.5866693,10.2053349 29.0026651,10.6053309 29.312,11.096 C29.6213349,11.5866691 29.8399994,12.1519968 29.968,12.792 C30.0960006,13.4320032 30.16,14.0826634 30.16,14.744 C30.16,15.4053366 30.0960006,16.0506635 29.968,16.68 C29.8399994,17.3093365 29.6213349,17.8746642 29.312,18.376 C29.0026651,18.8773358 28.5866693,19.2773318 28.064,19.576 C27.5413307,19.8746682 26.8960038,20.024 26.128,20.024 C25.3599962,20.024 24.7200026,19.8746682 24.208,19.576 C23.6959974,19.2773318 23.2853349,18.8773358 22.976,18.376 C22.6666651,17.8746642 22.4480006,17.3093365 22.32,16.68 C22.1919994,16.0506635 22.128,15.4053366 22.128,14.744 Z M17.584,14.744 C17.584,16.0666733 17.7866646,17.261328 18.192,18.328 C18.5973354,19.394672 19.1733296,20.3066629 19.92,21.064 C20.6666704,21.8213371 21.5626614,22.4026646 22.608,22.808 C23.6533386,23.2133354 24.8266602,23.416 26.128,23.416 C27.4293398,23.416 28.6079947,23.2133354 29.664,22.808 C30.7200053,22.4026646 31.6213296,21.8213371 32.368,21.064 C33.1146704,20.3066629 33.6906646,19.394672 34.096,18.328 C34.5013354,17.261328 34.704,16.0666733 34.704,14.744 C34.704,13.4213267 34.5013354,12.2213387 34.096,11.144 C33.6906646,10.0666613 33.1146704,9.14933712 32.368,8.392 C31.6213296,7.63466288 30.7200053,7.04800208 29.664,6.632 C28.6079947,6.21599792 27.4293398,6.008 26.128,6.008 C24.8266602,6.008 23.6533386,6.21599792 22.608,6.632 C21.5626614,7.04800208 20.6666704,7.63466288 19.92,8.392 C19.1733296,9.14933712 18.5973354,10.0666613 18.192,11.144 C17.7866646,12.2213387 17.584,13.4213267 17.584,14.744 Z M36.776,6.456 L36.776,23 L41.32,23 L41.32,13.4 C41.32,12.5893293 41.4373322,11.9333358 41.672,11.432 C41.9066678,10.9306642 42.1893317,10.546668 42.52,10.28 C42.8506683,10.013332 43.1919982,9.83200048 43.544,9.736 C43.8960018,9.63999952 44.1786656,9.592 44.392,9.592 C45.117337,9.592 45.6666648,9.71466544 46.04,9.96 C46.4133352,10.2053346 46.6799992,10.5306646 46.84,10.936 C47.0000008,11.3413354 47.0906666,11.7839976 47.112,12.264 C47.1333334,12.7440024 47.144,13.2293309 47.144,13.72 L47.144,23 L51.688,23 L51.688,13.784 C51.688,13.2719974 51.725333,12.7653358 51.8,12.264 C51.874667,11.7626642 52.0239989,11.3146686 52.248,10.92 C52.4720011,10.5253314 52.7813314,10.2053346 53.176,9.96 C53.5706686,9.71466544 54.0879968,9.592 54.728,9.592 C55.3680032,9.592 55.8746648,9.6986656 56.248,9.912 C56.6213352,10.1253344 56.903999,10.4133315 57.096,10.776 C57.288001,11.1386685 57.4053331,11.5653309 57.448,12.056 C57.4906669,12.5466691 57.512,13.0693306 57.512,13.624 L57.512,23 L62.056,23 L62.056,11.928 C62.056,10.861328 61.9066682,9.94933712 61.608,9.192 C61.3093318,8.43466288 60.893336,7.82133568 60.36,7.352 C59.826664,6.88266432 59.1866704,6.5413344 58.44,6.328 C57.6933296,6.1146656 56.882671,6.008 56.008,6.008 C54.8559942,6.008 53.8586709,6.28533056 53.016,6.84 C52.1733291,7.39466944 51.5066691,8.03466304 51.016,8.76 C50.5679978,7.73599488 49.9120043,7.02133536 49.048,6.616 C48.1839957,6.21066464 47.2293386,6.008 46.184,6.008 C45.0959946,6.008 44.1306709,6.24266432 43.288,6.712 C42.4453291,7.18133568 41.7253363,7.8426624 41.128,8.696 L41.064,8.696 L41.064,6.456 L36.776,6.456 Z M64.768,6.456 L64.768,23 L69.312,23 L69.312,13.4 C69.312,12.5893293 69.4293322,11.9333358 69.664,11.432 C69.8986678,10.9306642 70.1813317,10.546668 70.512,10.28 C70.8426683,10.013332 71.1839982,9.83200048 71.536,9.736 C71.8880018,9.63999952 72.1706656,9.592 72.384,9.592 C73.109337,9.592 73.6586648,9.71466544 74.032,9.96 C74.4053352,10.2053346 74.6719992,10.5306646 74.832,10.936 C74.9920008,11.3413354 75.0826666,11.7839976 75.104,12.264 C75.1253334,12.7440024 75.136,13.2293309 75.136,13.72 L75.136,23 L79.68,23 L79.68,13.784 C79.68,13.2719974 79.717333,12.7653358 79.792,12.264 C79.866667,11.7626642 80.0159989,11.3146686 80.24,10.92 C80.4640011,10.5253314 80.7733314,10.2053346 81.168,9.96 C81.5626686,9.71466544 82.0799968,9.592 82.72,9.592 C83.3600032,9.592 83.8666648,9.6986656 84.24,9.912 C84.6133352,10.1253344 84.895999,10.4133315 85.088,10.776 C85.280001,11.1386685 85.3973331,11.5653309 85.44,12.056 C85.4826669,12.5466691 85.504,13.0693306 85.504,13.624 L85.504,23 L90.048,23 L90.048,11.928 C90.048,10.861328 89.8986682,9.94933712 89.6,9.192 C89.3013318,8.43466288 88.885336,7.82133568 88.352,7.352 C87.818664,6.88266432 87.1786704,6.5413344 86.432,6.328 C85.6853296,6.1146656 84.874671,6.008 84,6.008 C82.8479942,6.008 81.8506709,6.28533056 81.008,6.84 C80.1653291,7.39466944 79.4986691,8.03466304 79.008,8.76 C78.5599978,7.73599488 77.9040043,7.02133536 77.04,6.616 C76.1759957,6.21066464 75.2213386,6.008 74.176,6.008 C73.0879946,6.008 72.1226709,6.24266432 71.28,6.712 C70.4373291,7.18133568 69.7173363,7.8426624 69.12,8.696 L69.056,8.696 L69.056,6.456 L64.768,6.456 Z M96.664,14.744 C96.664,14.0826634 96.7279994,13.4320032 96.856,12.792 C96.9840006,12.1519968 97.2026651,11.5866691 97.512,11.096 C97.8213349,10.6053309 98.2319974,10.2053349 98.744,9.896 C99.2560026,9.58666512 99.8959962,9.432 100.664,9.432 C101.432004,9.432 102.077331,9.58666512 102.6,9.896 C103.122669,10.2053349 103.538665,10.6053309 103.848,11.096 C104.157335,11.5866691 104.375999,12.1519968 104.504,12.792 C104.632001,13.4320032 104.696,14.0826634 104.696,14.744 C104.696,15.4053366 104.632001,16.0506635 104.504,16.68 C104.375999,17.3093365 104.157335,17.8746642 103.848,18.376 C103.538665,18.8773358 103.122669,19.2773318 102.6,19.576 C102.077331,19.8746682 101.432004,20.024 100.664,20.024 C99.8959962,20.024 99.2560026,19.8746682 98.744,19.576 C98.2319974,19.2773318 97.8213349,18.8773358 97.512,18.376 C97.2026651,17.8746642 96.9840006,17.3093365 96.856,16.68 C96.7279994,16.0506635 96.664,15.4053366 96.664,14.744 Z M92.12,14.744 C92.12,16.0666733 92.3226646,17.261328 92.728,18.328 C93.1333354,19.394672 93.7093296,20.3066629 94.456,21.064 C95.2026704,21.8213371 96.0986614,22.4026646 97.144,22.808 C98.1893386,23.2133354 99.3626602,23.416 100.664,23.416 C101.96534,23.416 103.143995,23.2133354 104.2,22.808 C105.256005,22.4026646 106.15733,21.8213371 106.904,21.064 C107.65067,20.3066629 108.226665,19.394672 108.632,18.328 C109.037335,17.261328 109.24,16.0666733 109.24,14.744 C109.24,13.4213267 109.037335,12.2213387 108.632,11.144 C108.226665,10.0666613 107.65067,9.14933712 106.904,8.392 C106.15733,7.63466288 105.256005,7.04800208 104.2,6.632 C103.143995,6.21599792 101.96534,6.008 100.664,6.008 C99.3626602,6.008 98.1893386,6.21599792 97.144,6.632 C96.0986614,7.04800208 95.2026704,7.63466288 94.456,8.392 C93.7093296,9.14933712 93.1333354,10.0666613 92.728,11.144 C92.3226646,12.2213387 92.12,13.4213267 92.12,14.744 Z M111.184,6.456 L111.184,23 L115.728,23 L115.728,14.328 C115.728,12.6426582 116.005331,11.4320037 116.56,10.696 C117.114669,9.95999632 118.01066,9.592 119.248,9.592 C120.336005,9.592 121.093331,9.92799664 121.52,10.6 C121.946669,11.2720034 122.16,12.2906598 122.16,13.656 L122.16,23 L126.704,23 L126.704,12.824 C126.704,11.7999949 126.613334,10.8666709 126.432,10.024 C126.250666,9.18132912 125.936002,8.4666696 125.488,7.88 C125.039998,7.2933304 124.426671,6.83466832 123.648,6.504 C122.869329,6.17333168 121.872006,6.008 120.656,6.008 C119.695995,6.008 118.757338,6.22666448 117.84,6.664 C116.922662,7.10133552 116.176003,7.7999952 115.6,8.76 L115.504,8.76 L115.504,6.456 L111.184,6.456 Z M138.048,9.496 L138.048,23 L142.592,23 L142.592,9.496 L145.728,9.496 L145.728,6.456 L142.592,6.456 L142.592,5.464 C142.592,4.78132992 142.725332,4.29600144 142.992,4.008 C143.258668,3.71999856 143.70133,3.576 144.32,3.576 C144.896003,3.576 145.450664,3.60799968 145.984,3.672 L145.984,0.28 C145.599998,0.25866656 145.205335,0.23200016 144.8,0.2 C144.394665,0.16799984 143.989335,0.152 143.584,0.152 C141.727991,0.152 140.341338,0.62132864 139.424,1.56 C138.506662,2.49867136 138.048,3.70399264 138.048,5.176 L138.048,6.456 L135.328,6.456 L135.328,9.496 L138.048,9.496 Z M148.48,0.152 L148.48,23 L153.024,23 L153.024,0.152 L148.48,0.152 Z M155.416,11.544 C155.48,10.477328 155.746664,9.59200352 156.216,8.888 C156.685336,8.18399648 157.282663,7.6186688 158.008,7.192 C158.733337,6.7653312 159.549329,6.46133424 160.456,6.28 C161.362671,6.09866576 162.274662,6.008 163.192,6.008 C164.024004,6.008 164.866662,6.06666608 165.72,6.184 C166.573338,6.30133392 167.351996,6.53066496 168.056,6.872 C168.760004,7.21333504 169.335998,7.68799696 169.784,8.296 C170.232002,8.90400304 170.456,9.70932832 170.456,10.712 L170.456,19.32 C170.456,20.0666704 170.498666,20.7813299 170.584,21.464 C170.669334,22.1466701 170.818666,22.658665 171.032,23 L166.424,23 C166.338666,22.7439987 166.269334,22.482668 166.216,22.216 C166.162666,21.949332 166.125333,21.6773347 166.104,21.4 C165.378663,22.1466704 164.525338,22.6693318 163.544,22.968 C162.562662,23.2666682 161.560005,23.416 160.536,23.416 C159.746663,23.416 159.01067,23.320001 158.328,23.128 C157.64533,22.935999 157.048003,22.6373354 156.536,22.232 C156.023997,21.8266646 155.624001,21.3146698 155.336,20.696 C155.047999,20.0773302 154.904,19.3413376 154.904,18.488 C154.904,17.5493286 155.069332,16.776003 155.4,16.168 C155.730668,15.559997 156.157331,15.0746685 156.68,14.712 C157.202669,14.3493315 157.799997,14.0773342 158.472,13.896 C159.144003,13.7146658 159.82133,13.5706672 160.504,13.464 C161.18667,13.3573328 161.858663,13.2720003 162.52,13.208 C163.181337,13.1439997 163.767997,13.0480006 164.28,12.92 C164.792003,12.7919994 165.197332,12.6053346 165.496,12.36 C165.794668,12.1146654 165.933333,11.7573357 165.912,11.288 C165.912,10.7973309 165.832001,10.4080014 165.672,10.12 C165.511999,9.83199856 165.298668,9.6080008 165.032,9.448 C164.765332,9.2879992 164.456002,9.1813336 164.104,9.128 C163.751998,9.0746664 163.373335,9.048 162.968,9.048 C162.071996,9.048 161.368003,9.23999808 160.856,9.624 C160.343997,10.0080019 160.045334,10.6479955 159.96,11.544 L155.416,11.544 Z M165.912,14.904 C165.719999,15.0746675 165.480001,15.2079995 165.192,15.304 C164.903999,15.4000005 164.594668,15.4799997 164.264,15.544 C163.933332,15.6080003 163.586668,15.6613331 163.224,15.704 C162.861332,15.7466669 162.498668,15.7999997 162.136,15.864 C161.794665,15.9280003 161.458668,16.0133328 161.128,16.12 C160.797332,16.2266672 160.509335,16.3706658 160.264,16.552 C160.018665,16.7333342 159.821334,16.9626653 159.672,17.24 C159.522666,17.5173347 159.448,17.8693312 159.448,18.296 C159.448,18.7013354 159.522666,19.0426653 159.672,19.32 C159.821334,19.5973347 160.023999,19.8159992 160.28,19.976 C160.536001,20.1360008 160.834665,20.2479997 161.176,20.312 C161.517335,20.3760003 161.869332,20.408 162.232,20.408 C163.128004,20.408 163.821331,20.2586682 164.312,19.96 C164.802669,19.6613318 165.165332,19.3040021 165.4,18.888 C165.634668,18.4719979 165.778666,18.0506688 165.832,17.624 C165.885334,17.1973312 165.912,16.8560013 165.912,16.6 L165.912,14.904 Z M180.688,19.096 C179.983996,19.096 179.397336,18.9466682 178.928,18.648 C178.458664,18.3493318 178.080001,17.9653357 177.792,17.496 C177.503999,17.0266643 177.301334,16.4986696 177.184,15.912 C177.066666,15.3253304 177.008,14.7333363 177.008,14.136 C177.008,13.5173302 177.077333,12.9253362 177.216,12.36 C177.354667,11.7946638 177.578665,11.2933355 177.888,10.856 C178.197335,10.4186645 178.581331,10.0720013 179.04,9.816 C179.498669,9.55999872 180.047997,9.432 180.688,9.432 C181.43467,9.432 182.053331,9.57066528 182.544,9.848 C183.034669,10.1253347 183.429332,10.4986643 183.728,10.968 C184.026668,11.4373357 184.239999,11.975997 184.368,12.584 C184.496001,13.192003 184.56,13.8373299 184.56,14.52 C184.56,15.1173363 184.480001,15.6879973 184.32,16.232 C184.159999,16.7760027 183.920002,17.2613312 183.6,17.688 C183.279998,18.1146688 182.874669,18.4559987 182.384,18.712 C181.893331,18.9680013 181.328003,19.096 180.688,19.096 Z M188.88,21.944 L188.88,6.456 L184.56,6.456 L184.56,8.664 L184.496,8.664 C183.941331,7.7039952 183.253337,7.02133536 182.432,6.616 C181.610663,6.21066464 180.656005,6.008 179.568,6.008 C178.415994,6.008 177.397338,6.23199776 176.512,6.68 C175.626662,7.12800224 174.885336,7.73066288 174.288,8.488 C173.690664,9.24533712 173.237335,10.119995 172.928,11.112 C172.618665,12.104005 172.464,13.133328 172.464,14.2 C172.464,15.3306723 172.597332,16.4026616 172.864,17.416 C173.130668,18.4293384 173.551997,19.3146629 174.128,20.072 C174.704003,20.8293371 175.439996,21.4266645 176.336,21.864 C177.232004,22.3013355 178.29866,22.52 179.536,22.52 C180.538672,22.52 181.493329,22.3120021 182.4,21.896 C183.306671,21.4799979 184.005331,20.834671 184.496,19.96 L184.56,19.96 L184.56,22.136 C184.581333,23.3093392 184.29867,24.2799962 183.712,25.048 C183.12533,25.8160038 182.192006,26.2 180.912,26.2 C180.101329,26.2 179.38667,26.0346683 178.768,25.704 C178.14933,25.3733317 177.733334,24.7813376 177.52,23.928 L173.008,23.928 C173.072,24.8666714 173.333331,25.6719966 173.792,26.344 C174.250669,27.0160034 174.826663,27.5653312 175.52,27.992 C176.213337,28.4186688 176.981329,28.7333323 177.824,28.936 C178.666671,29.1386677 179.493329,29.24 180.304,29.24 C182.202676,29.24 183.717328,28.9840026 184.848,28.472 C185.978672,27.9599974 186.842664,27.3360037 187.44,26.6 C188.037336,25.8639963 188.426666,25.0693376 188.608,24.216 C188.789334,23.3626624 188.88,22.6053366 188.88,21.944 Z" id="path-1"></path>
    </defs>
    <g id="Page-1" stroke="none" stroke-width="1" fill="none" fill-rule="evenodd">
        <g id="Artboard" transform="translate(-178.000000, -314.000000)">
            <g id="Screen-Shot-2016-11-29-at-3.13.31-PM" transform="translate(178.000000, 314.000000)">
                <mask id="mask-2" fill="white">
                    <use xlink:href="#path-1"></use>
                </mask>
                <use id="Mask" fill="#FFFFFF" xlink:href="#path-1"></use>
            </g>
        </g>
    </g>
</svg>