<?xml version="1.0" encoding="UTF-8" standalone="no"?>
<svg width="100px" height="70px" viewBox="0 0 100 70" version="1.1" xmlns="http://www.w3.org/2000/svg" xmlns:xlink="http://www.w3.org/1999/xlink">
    <!-- Generator: Sketch 41.2 (35397) - http://www.bohemiancoding.com/sketch -->
    <title>youtube</title>
    <desc>Created with Sketch.</desc>
    <defs></defs>
    <g id="Page-1" stroke="none" stroke-width="1" fill="none" fill-rule="evenodd">
        <g id="youtube" fill="#FFFFFF">
            <g id="Lozenge">
                <path d="M98.3,15.1 C98.3,15.1 97.3,8.3 94.4,5.2 C90.6,1.2 86.4,1.2 84.5,1 C70.5,0 49.7,0 49.7,0 L49.7,0 C49.7,0 28.9,0 15,1 C13.1,1.2 8.8,1.3 5.1,5.2 C2,8.2 1,15.1 1,15.1 C1,15.1 0,23.1 0,31.2 L0,38.7 C0,46.7 1,54.8 1,54.8 C1,54.8 2,61.6 4.9,64.7 C8.7,68.7 13.6,68.5 15.8,68.9 C23.7,69.7 49.6,69.9 49.6,69.9 C49.6,69.9 70.5,69.9 84.4,68.9 C86.3,68.7 90.6,68.6 94.3,64.7 C97.3,61.7 98.2,54.8 98.2,54.8 C98.2,54.8 99.2,46.8 99.2,38.7 L99.2,31.2 C99.3,23.1 98.3,15.1 98.3,15.1 Z M39.4,47.8 L39.4,19.9 L66.2,33.9 L39.4,47.8 Z" id="Shape"></path>
            </g>
        </g>
    </g>
</svg>