<?xml version="1.0" encoding="utf-8"?>
<!-- Generator: Adobe Illustrator 19.2.1, SVG Export Plug-In . SVG Version: 6.00 Build 0)  -->
<svg version="1.1" id="YouTube_Icon" xmlns="http://www.w3.org/2000/svg" xmlns:xlink="http://www.w3.org/1999/xlink" x="0px"
	 y="0px" viewBox="0 0 99.3 69.8" style="enable-background:new 0 0 99.3 69.8;" xml:space="preserve">
<style type="text/css">
	.st0{fill:#FFFFFF;}
</style>
<g id="Lozenge">
	<g>
		<path class="st0" d="M90.6,13.7c0,0-0.8-5.7-3.3-8.3c-3.2-3.3-6.7-3.3-8.4-3.5C67.2,1,49.7,1,49.7,1h0c0,0-17.5,0-29.2,0.8
			c-1.6,0.2-5.2,0.2-8.4,3.5c-2.5,2.5-3.3,8.3-3.3,8.3S8,20.4,8,27.1v6.3C8,40.2,8.8,47,8.8,47s0.8,5.7,3.3,8.3
			c3.2,3.3,7.3,3.2,9.2,3.6c6.7,0.6,28.4,0.8,28.4,0.8s17.5,0,29.2-0.9c1.6-0.2,5.2-0.2,8.4-3.5c2.5-2.5,3.3-8.3,3.3-8.3
			s0.8-6.7,0.8-13.5v-6.3C91.4,20.4,90.6,13.7,90.6,13.7z M41.1,41.1l0-23.4l22.5,11.8L41.1,41.1z"/>
	</g>
</g>
</svg>
